<svg width="134" height="146" viewBox="0 0 134 146" fill="none" xmlns="http://www.w3.org/2000/svg">
<path fill-rule="evenodd" clip-rule="evenodd" d="M83.7516 41.0795C83.7516 28.475 93.1208 18.2373 104.688 18.2373H134L125.625 36.4883V82.1442C125.625 107.353 106.887 127.743 83.7516 127.743H63.6261L46.5626 143.741C44.9661 145.253 42.8724 146.08 40.7788 145.994C16.492 144.91 5.23851 131.907 0.684745 124.235C-0.885517 121.583 0.370692 118.047 3.17099 117.277L40.8311 107.011C37.4812 104.273 34.1052 101.279 30.6506 97.6575C17.3034 83.6841 8.37903 64.8343 8.37903 44.6442C8.37903 32.8381 10.8391 21.6594 15.1835 11.6499C16.7014 8.14227 21.3337 8.34189 22.7731 11.9065C33.2415 37.9141 56.429 56.2506 83.7516 58.0187V41.0795ZM100.501 41.0795C100.501 43.589 102.385 45.6423 104.688 45.6423C106.991 45.6423 108.876 43.589 108.876 41.0795C108.876 38.57 106.991 36.5168 104.688 36.5168C102.385 36.5168 100.501 38.57 100.501 41.0795Z" fill="#172B4D"/>
<path d="M75.3639 54.6455C80.045 54.6318 78.1672 53.2875 72.1929 41.0795C66.2186 28.8716 63.0503 17.0396 61.2183 3.95025C60.6688 0.100442 56.2459 -1.41096 53.9428 1.58333C48.4207 8.68409 39.5179 20.412 37.5529 28.8716C35.588 37.3311 70.6828 54.6591 75.3639 54.6455Z" fill="#39A900"/>
</svg>
